<svg width="209" height="54" viewBox="0 0 209 54" fill="none" xmlns="http://www.w3.org/2000/svg">
<path fill-rule="evenodd" clip-rule="evenodd" d="M43.851 29.7L24.244 39.2L32.037 14.02L43.851 29.7Z" fill="#2584FF" stroke="#2584FF" stroke-width="10" stroke-linecap="round" stroke-linejoin="round"/>
<g style="mix-blend-mode:lighten">
<path fill-rule="evenodd" clip-rule="evenodd" d="M37.033 29.7L56.64 39.2L48.847 14.02L37.033 29.7Z" fill="#FF3400"/>
<path fill-rule="evenodd" clip-rule="evenodd" d="M37.033 29.7L56.64 39.2L48.847 14.02L37.033 29.7Z" stroke="#FF3400" stroke-width="10" stroke-linecap="round" stroke-linejoin="round"/>
</g>
<path d="M73.362 34.4413V12.6263H77.9743V21.6271H87.3373V12.6263H91.9389V34.4413H87.3373V25.4299H77.9743V34.4413H73.362ZM103.049 34.7609C101.394 34.7609 99.9633 34.4094 98.7561 33.7064C97.556 32.9962 96.6293 32.0092 95.9759 30.7451C95.3226 29.474 94.996 28.0005 94.996 26.3246C94.996 24.6345 95.3226 23.1575 95.9759 21.8934C96.6293 20.6223 97.556 19.6353 98.7561 18.9322C99.9633 18.2221 101.394 17.867 103.049 17.867C104.703 17.867 106.131 18.2221 107.331 18.9322C108.538 19.6353 109.468 20.6223 110.122 21.8934C110.775 23.1575 111.102 24.6345 111.102 26.3246C111.102 28.0005 110.775 29.474 110.122 30.7451C109.468 32.0092 108.538 32.9962 107.331 33.7064C106.131 34.4094 104.703 34.7609 103.049 34.7609ZM103.07 31.2458C103.823 31.2458 104.451 31.0327 104.955 30.6067C105.46 30.1735 105.84 29.5841 106.095 28.8385C106.358 28.0928 106.489 27.2442 106.489 26.2927C106.489 25.3411 106.358 24.4925 106.095 23.7469C105.84 23.0012 105.46 22.4118 104.955 21.9787C104.451 21.5455 103.823 21.3289 103.07 21.3289C102.31 21.3289 101.671 21.5455 101.153 21.9787C100.641 22.4118 100.254 23.0012 99.9917 23.7469C99.7361 24.4925 99.6082 25.3411 99.6082 26.2927C99.6082 27.2442 99.7361 28.0928 99.9917 28.8385C100.254 29.5841 100.641 30.1735 101.153 30.6067C101.671 31.0327 102.31 31.2458 103.07 31.2458ZM127.665 22.7456L123.511 23.0012C123.44 22.6462 123.287 22.3266 123.053 22.0426C122.819 21.7514 122.51 21.5206 122.126 21.3502C121.75 21.1727 121.299 21.0839 120.773 21.0839C120.07 21.0839 119.478 21.233 118.995 21.5313C118.512 21.8224 118.27 22.213 118.27 22.703C118.27 23.0936 118.427 23.4238 118.739 23.6936C119.051 23.9635 119.588 24.18 120.347 24.3434L123.309 24.9399C124.899 25.2665 126.085 25.792 126.866 26.5164C127.647 27.2407 128.038 28.1923 128.038 29.3711C128.038 30.4433 127.722 31.3843 127.09 32.1938C126.465 33.0033 125.606 33.6354 124.512 34.0898C123.426 34.5372 122.172 34.7609 120.752 34.7609C118.586 34.7609 116.861 34.31 115.575 33.4081C114.297 32.4992 113.548 31.2635 113.328 29.7013L117.791 29.4669C117.926 30.1273 118.253 30.6315 118.771 30.9795C119.289 31.3203 119.953 31.4908 120.763 31.4908C121.558 31.4908 122.197 31.3381 122.68 31.0327C123.17 30.7203 123.419 30.3191 123.426 29.8291C123.419 29.4172 123.245 29.0799 122.904 28.8172C122.563 28.5473 122.038 28.3414 121.327 28.1994L118.494 27.6348C116.896 27.3152 115.707 26.7613 114.926 25.9731C114.152 25.1849 113.765 24.18 113.765 22.9586C113.765 21.9076 114.049 21.0022 114.617 20.2424C115.192 19.4826 115.998 18.8967 117.035 18.4848C118.079 18.073 119.3 17.867 120.699 17.867C122.765 17.867 124.392 18.3038 125.577 19.1772C126.77 20.0507 127.466 21.2401 127.665 22.7456ZM139.598 18.0801V21.4887H129.745V18.0801H139.598ZM131.982 14.1602H136.52V29.4137C136.52 29.8326 136.584 30.1593 136.711 30.3936C136.839 30.6209 137.017 30.7807 137.244 30.873C137.478 30.9653 137.748 31.0114 138.053 31.0114C138.267 31.0114 138.48 30.9937 138.693 30.9582C138.906 30.9156 139.069 30.8836 139.183 30.8623L139.896 34.239C139.669 34.31 139.349 34.3916 138.938 34.484C138.526 34.5834 138.025 34.6437 137.436 34.665C136.342 34.7076 135.383 34.5621 134.56 34.2283C133.743 33.8945 133.107 33.3762 132.653 32.6731C132.199 31.9701 131.975 31.0825 131.982 30.0102V14.1602ZM142.554 34.4413V18.0801H147.092V34.4413H142.554ZM144.833 15.971C144.159 15.971 143.58 15.7473 143.097 15.2999C142.621 14.8455 142.383 14.3022 142.383 13.6702C142.383 13.0453 142.621 12.5092 143.097 12.0618C143.58 11.6073 144.159 11.3801 144.833 11.3801C145.508 11.3801 146.083 11.6073 146.559 12.0618C147.042 12.5092 147.283 13.0453 147.283 13.6702C147.283 14.3022 147.042 14.8455 146.559 15.2999C146.083 15.7473 145.508 15.971 144.833 15.971ZM159.525 18.0801V21.4887H149.427V18.0801H159.525ZM151.738 34.4413V16.8977C151.738 15.7118 151.969 14.7283 152.431 13.9472C152.9 13.166 153.539 12.5802 154.348 12.1896C155.158 11.799 156.077 11.6037 157.107 11.6037C157.803 11.6037 158.438 11.657 159.014 11.7635C159.596 11.87 160.029 11.9659 160.313 12.0511L159.504 15.4597C159.326 15.4029 159.106 15.3496 158.843 15.2999C158.588 15.2502 158.325 15.2254 158.055 15.2254C157.388 15.2254 156.922 15.3816 156.66 15.6941C156.397 15.9994 156.266 16.429 156.266 16.9829V34.4413H151.738ZM165.099 40.5768C164.523 40.5768 163.984 40.5307 163.479 40.4383C162.982 40.3531 162.571 40.2431 162.244 40.1081L163.266 36.7208C163.799 36.8842 164.278 36.9729 164.704 36.9871C165.138 37.0013 165.51 36.9019 165.823 36.6889C166.142 36.4759 166.402 36.1137 166.6 35.6024L166.867 34.91L160.998 18.0801H165.77L169.157 30.0954H169.327L172.747 18.0801H177.551L171.191 36.2096C170.886 37.0901 170.471 37.857 169.945 38.5104C169.427 39.1708 168.77 39.6785 167.975 40.0336C167.179 40.3957 166.221 40.5768 165.099 40.5768Z" fill="white"/>
</svg>
